<svg xmlns="http://www.w3.org/2000/svg" xmlns:xlink="http://www.w3.org/1999/xlink" version="1.1" width="256" height="256" viewBox="0 0 256 256" xml:space="preserve">

<defs>
</defs>
<g style="stroke: none; stroke-width: 0; stroke-dasharray: none; stroke-linecap: butt; stroke-linejoin: miter; stroke-miterlimit: 10; fill: none; fill-rule: nonzero; opacity: 1;" transform="translate(1.4065934065934016 1.4065934065934016) scale(2.81 2.81)" >
	<path d="M 73.771 19.39 c -0.378 -0.401 -0.904 -0.628 -1.455 -0.628 H 17.685 c -0.551 0 -1.077 0.227 -1.455 0.628 c -0.378 0.4 -0.574 0.939 -0.542 1.489 l 3.637 62.119 C 19.555 86.924 22.816 90 26.75 90 h 36.499 c 3.934 0 7.195 -3.076 7.427 -7.003 l 3.637 -62.119 C 74.344 20.329 74.148 19.79 73.771 19.39 z" style="stroke: none; stroke-width: 1; stroke-dasharray: none; stroke-linecap: butt; stroke-linejoin: miter; stroke-miterlimit: 10; fill: rgb(204,51,51); fill-rule: nonzero; opacity: 1;" transform=" matrix(1 0 0 1 0 0) " stroke-linecap="round" />
	<path d="M 78.052 14.538 H 11.948 c -1.104 0 -2 -0.896 -2 -2 s 0.896 -2 2 -2 h 66.104 c 1.104 0 2 0.896 2 2 S 79.156 14.538 78.052 14.538 z" style="stroke: none; stroke-width: 1; stroke-dasharray: none; stroke-linecap: butt; stroke-linejoin: miter; stroke-miterlimit: 10; fill: rgb(204,51,51); fill-rule: nonzero; opacity: 1;" transform=" matrix(1 0 0 1 0 0) " stroke-linecap="round" />
	<path d="M 57.711 14.538 H 32.289 c -1.104 0 -2 -0.896 -2 -2 V 7.36 c 0 -4.059 3.302 -7.36 7.36 -7.36 h 14.703 c 4.058 0 7.359 3.302 7.359 7.36 v 5.178 C 59.711 13.643 58.815 14.538 57.711 14.538 z M 34.289 10.538 h 21.422 V 7.36 c 0 -1.853 -1.507 -3.36 -3.359 -3.36 H 37.649 c -1.853 0 -3.36 1.507 -3.36 3.36 V 10.538 z" style="stroke: none; stroke-width: 1; stroke-dasharray: none; stroke-linecap: butt; stroke-linejoin: miter; stroke-miterlimit: 10; fill: rgb(204,51,51); fill-rule: nonzero; opacity: 1;" transform=" matrix(1 0 0 1 0 0) " stroke-linecap="round" />
	<path d="M 57.342 76.103 c -0.039 0 -0.079 -0.001 -0.119 -0.004 c -1.103 -0.064 -1.944 -1.011 -1.879 -2.113 l 2.29 -39.113 c 0.063 -1.103 0.993 -1.952 2.113 -1.88 c 1.103 0.064 1.944 1.011 1.88 2.113 L 59.336 74.22 C 59.274 75.282 58.393 76.103 57.342 76.103 z" style="stroke: none; stroke-width: 1; stroke-dasharray: none; stroke-linecap: butt; stroke-linejoin: miter; stroke-miterlimit: 10; fill: rgb(255,255,255); fill-rule: nonzero; opacity: 1;" transform=" matrix(1 0 0 1 0 0) " stroke-linecap="round" />
	<path d="M 32.658 76.103 c -1.051 0 -1.933 -0.82 -1.995 -1.883 l -2.29 -39.114 c -0.064 -1.103 0.777 -2.049 1.88 -2.113 c 1.088 -0.062 2.049 0.777 2.113 1.88 l 2.29 39.113 c 0.064 1.103 -0.777 2.049 -1.88 2.113 C 32.737 76.102 32.698 76.103 32.658 76.103 z" style="stroke: none; stroke-width: 1; stroke-dasharray: none; stroke-linecap: butt; stroke-linejoin: miter; stroke-miterlimit: 10; fill: rgb(255,255,255); fill-rule: nonzero; opacity: 1;" transform=" matrix(1 0 0 1 0 0) " stroke-linecap="round" />
	<path d="M 45 76.103 c -1.104 0 -2 -0.896 -2 -2 V 34.989 c 0 -1.104 0.896 -2 2 -2 s 2 0.896 2 2 v 39.114 C 47 75.207 46.104 76.103 45 76.103 z" style="stroke: none; stroke-width: 1; stroke-dasharray: none; stroke-linecap: butt; stroke-linejoin: miter; stroke-miterlimit: 10; fill: rgb(255,255,255); fill-rule: nonzero; opacity: 1;" transform=" matrix(1 0 0 1 0 0) " stroke-linecap="round" />
</g>
</svg>